<?xml version="1.0" encoding="utf-8"?>
<!-- Generator: Adobe Illustrator 23.0.4, SVG Export Plug-In . SVG Version: 6.00 Build 0)  -->
<svg version="1.1" xmlns="http://www.w3.org/2000/svg" xmlns:xlink="http://www.w3.org/1999/xlink" x="0px" y="0px" width="100px"
	 height="100px" viewBox="0 0 100 100" style="enable-background:new 0 0 100 100;" xml:space="preserve">
<style type="text/css">
	.st0{fill:#FFFFFF;}
	.st1{clip-path:url(#SVGID_2_);}
	.st2{fill:none;stroke:#000000;stroke-width:2.8056;}
	.st3{fill:none;stroke:#000000;stroke-width:1.4028;stroke-linecap:round;stroke-linejoin:round;}
	.st4{fill:none;}
</style>
<g id="Layer_2">
	<rect y="0" class="st0" width="100" height="100"/>
</g>
<g id="Layer_1">
	<g>
		<defs>
			<rect id="SVGID_1_" y="0" width="100" height="100"/>
		</defs>
		<clipPath id="SVGID_2_">
			<use xlink:href="#SVGID_1_"  style="overflow:visible;"/>
		</clipPath>
		<g class="st1">
			<g>
				<path d="M-0.2,0v33.4c0,0,4.3,0.8,9.5-3.1s11.3-5.5,17.9-6.2c6.6-0.8,19.8-1.6,24.5-0.8c4.7,0.8,21.2,4.7,23.1,7
					s12.7,7.8,14.6,9.4c1.9,1.6,10.8,2.3,10.8,2.3V0H-0.2z"/>
				<path class="st2" d="M4.1,31.4c6.8,0.6,12.5,6.2,19.4,7.9c9,2.2,18,2.2,27.2,1.5c8-0.6,13.6,1,21.2,4.2
					c5.6,2.4,12.7,5.7,19.2,6.8c3.8,0.7,5-1.1,9-1.6"/>
				<path class="st3" d="M10.3,33.5c-1.6,1.9-2.5,3.8-4.8,5.5"/>
				<path class="st3" d="M14.9,37.1c-0.7,1.2-1.4,2.7-1.9,4.2"/>
				<path class="st3" d="M20.6,39c0,1.9,0.2,4.2-0.5,5.6"/>
				<path class="st3" d="M26.2,40.8c-0.6,1.3-0.4,3.3-0.5,5.2"/>
				<path class="st3" d="M32.3,42.3c-0.2,1.2,0,2.3,0.5,3.3"/>
				<path class="st3" d="M38.4,41.8c-0.2,2,0.9,3.9,1.4,5.6"/>
				<path class="st3" d="M45.5,41.8c0.2,1.7,0.5,3.4,1.4,4.7"/>
				<path class="st3" d="M52.6,42.3c-0.3,1.6,0,3.2,0.9,4.2"/>
				<path class="st3" d="M57.7,41.8c-0.1,1.5-0.4,2.9-0.9,4.2"/>
				<path class="st3" d="M63.4,42.7c-0.8,2.1-1.3,4-2.8,5.2"/>
				<path class="st3" d="M69,44.6c-0.7,1.9-2.7,3.1-3.3,5.2"/>
				<path class="st3" d="M75.1,46.5c-0.6,1.4-1.6,3.3-3.3,4.2"/>
				<path class="st3" d="M81.3,49.3c-0.5,1.3-1.5,2.7-2.9,3.8"/>
				<path class="st3" d="M86.4,52.1c-0.5,1.1-1.2,2.6-1.9,3.8"/>
				<path class="st3" d="M92.6,51.7c0,1.9-0.2,3.5-0.9,5.2"/>
				<path class="st3" d="M95.8,51.7c0.9,1.4,1.2,3,0.9,4.7"/>
				<path class="st3" d="M2.7,35.7c1.4-1.2,2.9-2.6,2.8-4.7"/>
			</g>
			<rect x="0" class="st4" width="100" height="100"/>
		</g>
	</g>
</g>
</svg>
