<?xml version="1.0" encoding="utf-8"?>
<!-- Generator: Adobe Illustrator 23.0.4, SVG Export Plug-In . SVG Version: 6.00 Build 0)  -->
<svg version="1.1" id="Layer_1" xmlns="http://www.w3.org/2000/svg" xmlns:xlink="http://www.w3.org/1999/xlink" x="0px" y="0px"
	 width="100px" height="100px" viewBox="0 0 100 100" style="enable-background:new 0 0 100 100;" xml:space="preserve">
<style type="text/css">
	.st0{fill:#231F20;}
	.st1{fill:none;stroke:#231F20;stroke-width:2.8056;}
	.st2{fill:none;stroke:#231F20;stroke-width:1.4028;stroke-linecap:round;stroke-linejoin:round;}
</style>
<path class="st0" d="M0,0v33.4c0,0,4.3,0.8,9.5-3.1s11.3-5.5,17.9-6.2c6.6-0.8,19.8-1.6,24.5-0.8c4.7,0.8,21.2,4.7,23.1,7
	c1.9,2.3,12.7,7.8,14.6,9.4c1.9,1.6,10.8,2.3,10.8,2.3V0H0z"/>
<path class="st1" d="M4.3,31.4c6.8,0.6,12.5,6.2,19.4,7.9c9,2.2,18,2.2,27.2,1.5c8-0.6,13.6,1,21.2,4.2c5.6,2.4,12.7,5.7,19.2,6.8
	c3.8,0.7,5-1.1,9-1.6"/>
<path class="st2" d="M10.5,33.5C8.9,35.4,8,37.3,5.7,39"/>
<path class="st2" d="M15.1,37.1c-0.7,1.2-1.4,2.7-1.9,4.2"/>
<path class="st2" d="M20.8,39c0,1.9,0.2,4.2-0.5,5.6"/>
<path class="st2" d="M26.4,40.8c-0.6,1.3-0.4,3.3-0.5,5.2"/>
<path class="st2" d="M32.5,42.3c-0.2,1.2,0,2.3,0.5,3.3"/>
<path class="st2" d="M38.6,41.8c-0.2,2,0.9,3.9,1.4,5.6"/>
<path class="st2" d="M45.7,41.8c0.2,1.7,0.5,3.4,1.4,4.7"/>
<path class="st2" d="M52.8,42.3c-0.3,1.6,0,3.2,0.9,4.2"/>
<path class="st2" d="M57.9,41.8c-0.1,1.5-0.4,2.9-0.9,4.2"/>
<path class="st2" d="M63.6,42.7c-0.8,2.1-1.3,4-2.8,5.2"/>
<path class="st2" d="M69.2,44.6c-0.7,1.9-2.7,3.1-3.3,5.2"/>
<path class="st2" d="M75.3,46.5c-0.6,1.4-1.6,3.3-3.3,4.2"/>
<path class="st2" d="M81.5,49.3C81,50.6,80,52,78.6,53.1"/>
<path class="st2" d="M86.6,52.1c-0.5,1.1-1.2,2.6-1.9,3.8"/>
<path class="st2" d="M92.8,51.7c0,1.9-0.2,3.5-0.9,5.2"/>
<path class="st2" d="M96,51.7c0.9,1.4,1.2,3,0.9,4.7"/>
<path class="st2" d="M2.9,35.7c1.4-1.2,2.9-2.6,2.8-4.7"/>
</svg>
