<?xml version="1.0" encoding="utf-8"?>
<!-- Generator: Adobe Illustrator 23.0.4, SVG Export Plug-In . SVG Version: 6.00 Build 0)  -->
<svg version="1.1" xmlns="http://www.w3.org/2000/svg" xmlns:xlink="http://www.w3.org/1999/xlink" x="0px" y="0px" width="100px"
	 height="100px" viewBox="0 0 100 100" style="enable-background:new 0 0 100 100;" xml:space="preserve">
<style type="text/css">
	.st0{fill:#FFFFFF;}
	.st1{clip-path:url(#SVGID_2_);}
	.st2{fill:none;stroke:#000000;stroke-width:1.3901;stroke-linecap:round;stroke-linejoin:round;}
</style>
<g id="Layer_2">
	<rect x="0" class="st0" width="100" height="100"/>
</g>
<g id="Layer_1">
	<g>
		<defs>
			<rect id="SVGID_1_" x="0" width="100" height="100"/>
		</defs>
		<clipPath id="SVGID_2_">
			<use xlink:href="#SVGID_1_"  style="overflow:visible;"/>
		</clipPath>
		<g class="st1">
			<path d="M0,0v50c0,0,16.3-0.2,25.2,1.6c8.9,1.9,12.1,3.7,15.4,3.7c3.3,0,6.5-0.5,7.9-0.9c1.4-0.5,2.8-3.3,0-3.3
				s-9.8-1.4-11.7-3.3c-1.9-1.9-3.3-4.7-3.3-8.9s1.4-11.2,8.9-14.5s13.5-6.1,17.2-4.7s9.8,2.3,11.2,5.1s4.2,8.4,3.3,11.7
				c-0.9,3.3-1.4,7-3.3,9.3s-4.2,4.2-7,5.1c-2.8,0.9-4.2,3.3-1.9,3.3c2.3,0,7-0.9,9.3-1.4s9.3-0.5,11.2-0.5c1.9,0,11.7,1.9,11.7,1.9
				L100,54V0H0z"/>
			<path class="st2" d="M39.4,30.9c2,0.1,5.6,1.6,6.8,3.4"/>
			<path class="st2" d="M46.3,26.8c3,0.3,4.1,3.6,4.8,6.2"/>
			<path class="st2" d="M53.4,23.4c2.1,0.8,3,5.2,2.1,7.2"/>
			<path class="st2" d="M61.7,25.4c0.9,2.5,0,5.2-2.1,6.5"/>
			<path class="st2" d="M67.8,29.2c0.5,3.4-1.6,5-4.8,5.1"/>
			<path class="st2" d="M69.9,40.2c-2.7-0.1-6.6,2.1-8.5-0.7"/>
			<path class="st2" d="M62,47.7c-3.5,0.4-4.8-2.4-6.5-4.8"/>
			<path class="st2" d="M50,48.7c-2.1-1-1.9-5.1-0.3-6.5"/>
			<path class="st2" d="M39.8,46.6c0.6-2.9,1.8-4.1,4.4-5.1"/>
			<path class="st2" d="M36.4,38.8c1.4-1.5,4.2-2.3,6.2-1.4"/>
		</g>
	</g>
</g>
</svg>
