<?xml version="1.0" encoding="utf-8"?>
<!-- Generator: Adobe Illustrator 23.0.4, SVG Export Plug-In . SVG Version: 6.00 Build 0)  -->
<svg version="1.1" xmlns="http://www.w3.org/2000/svg" xmlns:xlink="http://www.w3.org/1999/xlink" x="0px" y="0px" width="100px"
	 height="100px" viewBox="0 0 100 100" style="enable-background:new 0 0 100 100;" xml:space="preserve">
<style type="text/css">
	.st0{fill:#FFFFFF;}
	.st1{clip-path:url(#SVGID_2_);}
	.st2{fill:none;stroke:#231F20;stroke-width:2;}
	.st3{fill:#231F20;}
	.st4{fill:none;}
</style>
<g id="Layer_2">
	<rect x="0" class="st0" width="100" height="100"/>
</g>
<g id="Layer_1">
	<g>
		<defs>
			<rect id="SVGID_1_" x="0" width="100" height="100"/>
		</defs>
		<clipPath id="SVGID_2_">
			<use xlink:href="#SVGID_1_"  style="overflow:visible;"/>
		</clipPath>
		<g class="st1">
			<line class="st2" x1="11.6" y1="0" x2="11.6" y2="100"/>
			<line class="st2" x1="89" y1="0" x2="89" y2="100"/>
			<path class="st3" d="M52.7,53h0.4c2,0,3-0.9,3-2.7c0-1.7-1.2-2.5-2.4-2.5c-1.7,0-2.5,0.9-2.9,2.3L50.2,52
				c-0.9,2.4-2.2,3.4-4.5,3.4c-3,0-4.6-2-4.6-5.1c0-4.2,2.6-4.6,4.3-4.6h0.4v2.6h-0.3c-1.5,0-2.4,0.7-2.4,2.3c0,1.1,0.6,2.2,2.4,2.2
				c1.4,0,2.1-0.7,2.8-2.5l0.6-1.8c0.8-2.3,2.1-3.3,4.3-3.3c3.5,0,4.9,2.1,4.9,5.4c0,4.1-2.7,5-5,5h-0.4V53z"/>
			<line class="st4" x1="59.6" y1="50.2" x2="38.9" y2="50.2"/>
			<line class="st2" x1="89.9" y1="50.1" x2="11.6" y2="50.1"/>
		</g>
	</g>
</g>
</svg>
