<?xml version="1.0" encoding="utf-8"?>
<!-- Generator: Adobe Illustrator 23.0.4, SVG Export Plug-In . SVG Version: 6.00 Build 0)  -->
<svg version="1.1" xmlns="http://www.w3.org/2000/svg" xmlns:xlink="http://www.w3.org/1999/xlink" x="0px" y="0px" width="100px"
	 height="100px" viewBox="0 0 100 100" style="enable-background:new 0 0 100 100;" xml:space="preserve">
<style type="text/css">
	.st0{fill:#FFFFFF;}
	.st1{fill:none;}
	.st2{fill:none;stroke:#231F20;stroke-width:2;}
	.st3{fill:#231F20;}
	.st4{fill:none;stroke:#231F20;stroke-width:2;stroke-linecap:round;stroke-linejoin:round;}
</style>
<g id="Layer_2">
	<rect x="0.4" class="st0" width="100" height="100"/>
</g>
<g id="Layer_1">
	<g>
		<rect class="st1" width="100" height="100"/>
		<g>
			<path class="st2" d="M88.9,50.4"/>
			<path class="st2" d="M10.8,50.4"/>
			<line class="st2" x1="11.6" y1="0" x2="11.6" y2="100"/>
			<line class="st2" x1="89" y1="0" x2="89" y2="100"/>
		</g>
	</g>
	<g>
		<path class="st2" d="M89,50.4"/>
		<path class="st2" d="M11.6,50.4"/>
	</g>
	<g>
		<path class="st3" d="M81.7,43.8v10.4h-2v-1c-0.9,0.8-1.4,1.2-2.6,1.2c-1.1,0-1.8-0.8-1.8-2.2v-8.4h2.2v8c0,0.5,0.3,0.8,0.8,0.8
			c0.5,0,0.9-0.3,1.4-0.7v-8.1H81.7z"/>
		<polyline class="st0" points="68.9,61.4 68.9,48.9 68.9,36.3 		"/>
		<polyline class="st4" points="68.9,61.4 68.9,48.9 68.9,36.3 		"/>
		<polyline class="st0" points="62.7,60.7 62.7,48.9 62.7,37 		"/>
		<polyline class="st4" points="62.7,60.7 62.7,48.9 62.7,37 		"/>
		<polyline class="st0" points="56.6,59.4 56.6,48.8 56.6,38.2 		"/>
		<polyline class="st4" points="56.6,59.4 56.6,48.8 56.6,38.2 		"/>
		<polyline class="st0" points="50.4,58.2 50.4,48.8 50.4,39.4 		"/>
		<polyline class="st4" points="50.4,58.2 50.4,48.8 50.4,39.4 		"/>
		<polyline class="st0" points="44.2,57 44.2,48.8 44.2,40.5 		"/>
		<polyline class="st4" points="44.2,57 44.2,48.8 44.2,40.5 		"/>
		<polyline class="st0" points="38.1,55.9 38.1,48.7 38.1,41.5 		"/>
		<polyline class="st4" points="38.1,55.9 38.1,48.7 38.1,41.5 		"/>
		<polyline class="st0" points="31.9,54.9 31.9,48.7 31.9,42.5 		"/>
		<polyline class="st4" points="31.9,54.9 31.9,48.7 31.9,42.5 		"/>
		<polyline class="st0" points="25.7,53.9 25.7,48.6 25.7,43.4 		"/>
		<polyline class="st4" points="25.7,53.9 25.7,48.6 25.7,43.4 		"/>
		<polyline class="st0" points="19.6,53 19.6,48.6 19.6,44.2 		"/>
		<polyline class="st4" points="19.6,53 19.6,48.6 19.6,44.2 		"/>
	</g>
</g>
</svg>
