<?xml version="1.0" encoding="utf-8"?>
<!-- Generator: Adobe Illustrator 23.0.4, SVG Export Plug-In . SVG Version: 6.00 Build 0)  -->
<svg version="1.1" xmlns="http://www.w3.org/2000/svg" xmlns:xlink="http://www.w3.org/1999/xlink" x="0px" y="0px" width="100px"
	 height="100px" viewBox="0 0 100 100" style="enable-background:new 0 0 100 100;" xml:space="preserve">
<style type="text/css">
	.st0{fill:#FFFFFF;}
	.st1{fill:none;}
	.st2{fill:none;stroke:#231F20;stroke-width:2;}
	.st3{fill:none;stroke:#231F20;stroke-width:2;stroke-linecap:round;stroke-linejoin:round;}
	.st4{fill:#231F20;}
</style>
<g id="Layer_2">
	<rect x="0.4" class="st0" width="100" height="100"/>
</g>
<g id="Layer_1">
	<g>
		<polyline class="st1" points="100,0 100,100 0,100 0,0 		"/>
		<g>
			<path class="st2" d="M88.9,50.4"/>
			<path class="st2" d="M10.8,50.4"/>
			<line class="st2" x1="11.6" y1="0" x2="11.6" y2="100"/>
			<line class="st2" x1="89" y1="0" x2="89" y2="100"/>
		</g>
	</g>
	<g>
		<path class="st2" d="M89,50.4"/>
		<path class="st2" d="M11.6,50.4"/>
	</g>
	<g>
		<path class="st3" d="M61.1,50.4c0,5.9-4.8,10.6-10.6,10.6s-10.6-4.8-10.6-10.6c0-5.9,4.8-10.6,10.6-10.6S61.1,44.5,61.1,50.4z"/>
		<polygon class="st4" points="47.3,57.5 47.3,43.1 54.2,43.1 54.2,45.3 49.7,45.3 49.7,49 53,49 53,51.1 49.7,51.1 49.7,57.5 		"/>
	</g>
</g>
</svg>
